<mxfile host="65bd71144e">
    <diagram id="hyLqfFfreGTfDCUPsIdt" name="Page-1">
        <mxGraphModel dx="1204" dy="630" grid="1" gridSize="10" guides="1" tooltips="1" connect="1" arrows="1" fold="1" page="1" pageScale="1" pageWidth="827" pageHeight="1169" math="0" shadow="0">
            <root>
                <mxCell id="0"/>
                <mxCell id="1" parent="0"/>
                <mxCell id="227" value="" style="rounded=0;whiteSpace=wrap;html=1;dashed=1;" vertex="1" parent="1">
                    <mxGeometry x="80" y="230" width="660" height="120" as="geometry"/>
                </mxCell>
                <mxCell id="249" value="" style="rounded=0;whiteSpace=wrap;html=1;fontSize=13;" vertex="1" parent="1">
                    <mxGeometry x="268.5" y="235.5" width="120" height="105" as="geometry"/>
                </mxCell>
                <mxCell id="250" value="" style="rounded=0;whiteSpace=wrap;html=1;fontSize=13;" vertex="1" parent="1">
                    <mxGeometry x="426" y="235.5" width="120" height="105" as="geometry"/>
                </mxCell>
                <mxCell id="251" value="" style="rounded=0;whiteSpace=wrap;html=1;fontSize=13;" vertex="1" parent="1">
                    <mxGeometry x="588.5" y="235.5" width="120" height="105" as="geometry"/>
                </mxCell>
                <mxCell id="244" value="" style="rounded=0;whiteSpace=wrap;html=1;fontSize=13;" vertex="1" parent="1">
                    <mxGeometry x="108" y="235" width="120" height="105" as="geometry"/>
                </mxCell>
                <mxCell id="2" value="" style="rounded=0;whiteSpace=wrap;html=1;" parent="1" vertex="1">
                    <mxGeometry width="820" height="40" as="geometry"/>
                </mxCell>
                <mxCell id="3" value="" style="rounded=1;whiteSpace=wrap;html=1;" parent="1" vertex="1">
                    <mxGeometry x="630" y="10" width="60" height="20" as="geometry"/>
                </mxCell>
                <mxCell id="4" value="" style="rounded=1;whiteSpace=wrap;html=1;" parent="1" vertex="1">
                    <mxGeometry x="710" y="10" width="60" height="20" as="geometry"/>
                </mxCell>
                <mxCell id="5" value="LOGO HERE" style="text;html=1;strokeColor=none;fillColor=none;align=center;verticalAlign=middle;whiteSpace=wrap;rounded=0;" parent="1" vertex="1">
                    <mxGeometry x="60" y="5" width="90" height="30" as="geometry"/>
                </mxCell>
                <mxCell id="54" value="Log In/Out" style="text;html=1;strokeColor=none;fillColor=none;align=center;verticalAlign=middle;whiteSpace=wrap;rounded=0;fontSize=10;" parent="1" vertex="1">
                    <mxGeometry x="630" y="5" width="60" height="30" as="geometry"/>
                </mxCell>
                <mxCell id="55" value="Admin" style="text;html=1;strokeColor=none;fillColor=none;align=center;verticalAlign=middle;whiteSpace=wrap;rounded=0;fontSize=10;" parent="1" vertex="1">
                    <mxGeometry x="710" y="5" width="60" height="30" as="geometry"/>
                </mxCell>
                <mxCell id="118" value="Admin Console" style="text;strokeColor=none;fillColor=none;html=1;fontSize=24;fontStyle=1;verticalAlign=middle;align=center;" vertex="1" parent="1">
                    <mxGeometry x="374" y="75" width="100" height="40" as="geometry"/>
                </mxCell>
                <mxCell id="119" value="&lt;font style=&quot;font-size: 19px&quot;&gt;&lt;b&gt;Auction Title - Items List&lt;/b&gt;&lt;/font&gt;" style="text;html=1;strokeColor=none;fillColor=none;align=left;verticalAlign=middle;whiteSpace=wrap;rounded=0;" vertex="1" parent="1">
                    <mxGeometry x="104" y="130" width="346" height="30" as="geometry"/>
                </mxCell>
                <mxCell id="120" value="&lt;font style=&quot;font-size: 16px&quot;&gt;Add Item&lt;/font&gt;" style="text;html=1;strokeColor=none;fillColor=none;align=center;verticalAlign=middle;whiteSpace=wrap;rounded=0;fontSize=19;" vertex="1" parent="1">
                    <mxGeometry x="90" y="160" width="130" height="30" as="geometry"/>
                </mxCell>
                <mxCell id="121" value="" style="rounded=0;whiteSpace=wrap;html=1;fontSize=16;" vertex="1" parent="1">
                    <mxGeometry x="110" y="190" width="300" height="20" as="geometry"/>
                </mxCell>
                <mxCell id="124" value="" style="rounded=1;whiteSpace=wrap;html=1;fontSize=16;" vertex="1" parent="1">
                    <mxGeometry x="430" y="190" width="70" height="20" as="geometry"/>
                </mxCell>
                <mxCell id="125" value="Search Term" style="text;html=1;strokeColor=none;fillColor=none;align=center;verticalAlign=middle;whiteSpace=wrap;rounded=0;fontSize=11;" vertex="1" parent="1">
                    <mxGeometry x="70" y="185" width="180" height="30" as="geometry"/>
                </mxCell>
                <mxCell id="128" value="Search" style="text;html=1;strokeColor=none;fillColor=none;align=center;verticalAlign=middle;whiteSpace=wrap;rounded=0;fontSize=11;" vertex="1" parent="1">
                    <mxGeometry x="420" y="185" width="90" height="30" as="geometry"/>
                </mxCell>
                <mxCell id="189" value="" style="group" vertex="1" connectable="0" parent="1">
                    <mxGeometry x="72" y="533" width="681" height="54" as="geometry"/>
                </mxCell>
                <mxCell id="200" value="" style="endArrow=none;html=1;fontSize=10;" edge="1" parent="189">
                    <mxGeometry width="50" height="50" relative="1" as="geometry">
                        <mxPoint x="11" as="sourcePoint"/>
                        <mxPoint x="681" as="targetPoint"/>
                    </mxGeometry>
                </mxCell>
                <mxCell id="258" value="" style="group" vertex="1" connectable="0" parent="189">
                    <mxGeometry x="-2" y="14" width="680" height="40" as="geometry"/>
                </mxCell>
                <mxCell id="179" value="" style="whiteSpace=wrap;html=1;aspect=fixed;" vertex="1" parent="258">
                    <mxGeometry x="10" width="40" height="40" as="geometry"/>
                </mxCell>
                <mxCell id="180" value="Image" style="text;html=1;strokeColor=none;fillColor=none;align=center;verticalAlign=middle;whiteSpace=wrap;rounded=0;" vertex="1" parent="258">
                    <mxGeometry y="6" width="60" height="30" as="geometry"/>
                </mxCell>
                <mxCell id="181" value="Item Name" style="text;html=1;strokeColor=none;fillColor=none;align=center;verticalAlign=middle;whiteSpace=wrap;rounded=0;" vertex="1" parent="258">
                    <mxGeometry x="50" width="100" height="20" as="geometry"/>
                </mxCell>
                <mxCell id="182" value="Item description" style="text;html=1;strokeColor=none;fillColor=none;align=left;verticalAlign=middle;whiteSpace=wrap;rounded=0;" vertex="1" parent="258">
                    <mxGeometry x="70" y="20" width="350" height="20" as="geometry"/>
                </mxCell>
                <mxCell id="183" value="Start Bid&lt;br&gt;$X.xx" style="text;html=1;strokeColor=none;fillColor=none;align=center;verticalAlign=middle;whiteSpace=wrap;rounded=0;" vertex="1" parent="258">
                    <mxGeometry x="384" y="6" width="60" height="30" as="geometry"/>
                </mxCell>
                <mxCell id="184" value="# bids" style="text;html=1;strokeColor=none;fillColor=none;align=center;verticalAlign=middle;whiteSpace=wrap;rounded=0;" vertex="1" parent="258">
                    <mxGeometry x="453" y="10" width="60" height="30" as="geometry"/>
                </mxCell>
                <mxCell id="185" value="Link to product" style="text;html=1;strokeColor=none;fillColor=none;align=center;verticalAlign=middle;whiteSpace=wrap;rounded=0;" vertex="1" parent="258">
                    <mxGeometry x="247" y="9" width="90" height="30" as="geometry"/>
                </mxCell>
                <mxCell id="187" value="High Bid&lt;br&gt;&lt;br&gt;Bidder Name" style="text;html=1;strokeColor=none;fillColor=none;align=center;verticalAlign=middle;whiteSpace=wrap;rounded=0;fontSize=10;" vertex="1" parent="258">
                    <mxGeometry x="512" y="9" width="80" height="30" as="geometry"/>
                </mxCell>
                <mxCell id="188" value="EDIT" style="rounded=1;whiteSpace=wrap;html=1;fontSize=10;" vertex="1" parent="258">
                    <mxGeometry x="610" y="9" width="70" height="24" as="geometry"/>
                </mxCell>
                <mxCell id="201" value="" style="group" vertex="1" connectable="0" parent="1">
                    <mxGeometry x="72" y="592" width="681" height="54" as="geometry"/>
                </mxCell>
                <mxCell id="212" value="" style="endArrow=none;html=1;fontSize=10;" edge="1" parent="201">
                    <mxGeometry width="50" height="50" relative="1" as="geometry">
                        <mxPoint x="11" y="11" as="sourcePoint"/>
                        <mxPoint x="681" y="11" as="targetPoint"/>
                    </mxGeometry>
                </mxCell>
                <mxCell id="225" value="&lt;b&gt;Current Listings&lt;/b&gt;" style="text;html=1;strokeColor=none;fillColor=none;align=center;verticalAlign=middle;whiteSpace=wrap;rounded=0;" vertex="1" parent="1">
                    <mxGeometry x="73" y="364" width="100" height="30" as="geometry"/>
                </mxCell>
                <mxCell id="224" value="" style="endArrow=none;html=1;fontSize=10;" edge="1" parent="1">
                    <mxGeometry width="50" height="50" relative="1" as="geometry">
                        <mxPoint x="84" y="463" as="sourcePoint"/>
                        <mxPoint x="754" y="463" as="targetPoint"/>
                    </mxGeometry>
                </mxCell>
                <mxCell id="226" value="" style="endArrow=none;html=1;fontSize=10;exitX=0;exitY=1;exitDx=0;exitDy=0;" edge="1" parent="1" source="225">
                    <mxGeometry width="50" height="50" relative="1" as="geometry">
                        <mxPoint x="94" y="393" as="sourcePoint"/>
                        <mxPoint x="764" y="393" as="targetPoint"/>
                    </mxGeometry>
                </mxCell>
                <mxCell id="229" value="&lt;h1 style=&quot;font-size: 13px&quot;&gt;&lt;font style=&quot;font-size: 13px&quot;&gt;Search Result 1&lt;/font&gt;&lt;/h1&gt;&lt;div style=&quot;font-size: 13px&quot;&gt;Name&lt;/div&gt;&lt;div&gt;Description&lt;/div&gt;&lt;div&gt;Price&lt;/div&gt;" style="text;html=1;strokeColor=none;fillColor=none;spacing=5;spacingTop=-20;whiteSpace=wrap;overflow=hidden;rounded=0;dashed=1;" vertex="1" parent="1">
                    <mxGeometry x="108" y="240" width="120" height="70" as="geometry"/>
                </mxCell>
                <mxCell id="231" value="" style="whiteSpace=wrap;html=1;aspect=fixed;" vertex="1" parent="1">
                    <mxGeometry x="183" y="265" width="40" height="40" as="geometry"/>
                </mxCell>
                <mxCell id="232" value="Image" style="text;html=1;strokeColor=none;fillColor=none;align=center;verticalAlign=middle;whiteSpace=wrap;rounded=0;" vertex="1" parent="1">
                    <mxGeometry x="173" y="271" width="60" height="30" as="geometry"/>
                </mxCell>
                <mxCell id="233" value="&lt;h1 style=&quot;font-size: 13px&quot;&gt;&lt;font style=&quot;font-size: 13px&quot;&gt;Search Result 2&lt;/font&gt;&lt;/h1&gt;&lt;div style=&quot;font-size: 13px&quot;&gt;Name&lt;/div&gt;&lt;div&gt;Description&lt;/div&gt;&lt;div&gt;Price&lt;/div&gt;" style="text;html=1;strokeColor=none;fillColor=none;spacing=5;spacingTop=-20;whiteSpace=wrap;overflow=hidden;rounded=0;dashed=1;" vertex="1" parent="1">
                    <mxGeometry x="268.5" y="240" width="120" height="80" as="geometry"/>
                </mxCell>
                <mxCell id="234" value="" style="whiteSpace=wrap;html=1;aspect=fixed;" vertex="1" parent="1">
                    <mxGeometry x="343.5" y="265" width="40" height="40" as="geometry"/>
                </mxCell>
                <mxCell id="235" value="Image" style="text;html=1;strokeColor=none;fillColor=none;align=center;verticalAlign=middle;whiteSpace=wrap;rounded=0;" vertex="1" parent="1">
                    <mxGeometry x="333.5" y="271" width="60" height="30" as="geometry"/>
                </mxCell>
                <mxCell id="236" value="&lt;h1 style=&quot;font-size: 13px&quot;&gt;&lt;font style=&quot;font-size: 13px&quot;&gt;Search Result 3&lt;/font&gt;&lt;/h1&gt;&lt;div style=&quot;font-size: 13px&quot;&gt;Name&lt;/div&gt;&lt;div&gt;Description&lt;/div&gt;&lt;div&gt;Price&lt;/div&gt;" style="text;html=1;strokeColor=none;fillColor=none;spacing=5;spacingTop=-20;whiteSpace=wrap;overflow=hidden;rounded=0;dashed=1;" vertex="1" parent="1">
                    <mxGeometry x="427" y="240" width="120" height="80" as="geometry"/>
                </mxCell>
                <mxCell id="237" value="" style="whiteSpace=wrap;html=1;aspect=fixed;" vertex="1" parent="1">
                    <mxGeometry x="502" y="265" width="40" height="40" as="geometry"/>
                </mxCell>
                <mxCell id="238" value="Image" style="text;html=1;strokeColor=none;fillColor=none;align=center;verticalAlign=middle;whiteSpace=wrap;rounded=0;" vertex="1" parent="1">
                    <mxGeometry x="492" y="271" width="60" height="30" as="geometry"/>
                </mxCell>
                <mxCell id="240" value="&lt;h1 style=&quot;font-size: 13px&quot;&gt;&lt;font style=&quot;font-size: 13px&quot;&gt;Search Result 4&lt;/font&gt;&lt;/h1&gt;&lt;div style=&quot;font-size: 13px&quot;&gt;Name&lt;/div&gt;&lt;div&gt;Description&lt;/div&gt;&lt;div&gt;Price&lt;/div&gt;" style="text;html=1;strokeColor=none;fillColor=none;spacing=5;spacingTop=-20;whiteSpace=wrap;overflow=hidden;rounded=0;dashed=1;" vertex="1" parent="1">
                    <mxGeometry x="587.5" y="240" width="120" height="80" as="geometry"/>
                </mxCell>
                <mxCell id="241" value="" style="whiteSpace=wrap;html=1;aspect=fixed;" vertex="1" parent="1">
                    <mxGeometry x="662.5" y="265" width="40" height="40" as="geometry"/>
                </mxCell>
                <mxCell id="242" value="Image" style="text;html=1;strokeColor=none;fillColor=none;align=center;verticalAlign=middle;whiteSpace=wrap;rounded=0;" vertex="1" parent="1">
                    <mxGeometry x="652.5" y="271" width="60" height="30" as="geometry"/>
                </mxCell>
                <mxCell id="247" value="" style="rounded=1;whiteSpace=wrap;html=1;fontSize=13;" vertex="1" parent="1">
                    <mxGeometry x="134" y="315" width="68" height="20" as="geometry"/>
                </mxCell>
                <mxCell id="248" value="SELECT" style="text;html=1;strokeColor=none;fillColor=none;align=center;verticalAlign=middle;whiteSpace=wrap;rounded=0;fontSize=13;" vertex="1" parent="1">
                    <mxGeometry x="138" y="310" width="60" height="30" as="geometry"/>
                </mxCell>
                <mxCell id="252" value="" style="rounded=1;whiteSpace=wrap;html=1;fontSize=13;" vertex="1" parent="1">
                    <mxGeometry x="294.5" y="315" width="68" height="20" as="geometry"/>
                </mxCell>
                <mxCell id="253" value="" style="rounded=1;whiteSpace=wrap;html=1;fontSize=13;" vertex="1" parent="1">
                    <mxGeometry x="452" y="315" width="68" height="20" as="geometry"/>
                </mxCell>
                <mxCell id="254" value="" style="rounded=1;whiteSpace=wrap;html=1;fontSize=13;" vertex="1" parent="1">
                    <mxGeometry x="613.5" y="315" width="68" height="20" as="geometry"/>
                </mxCell>
                <mxCell id="255" value="SELECT" style="text;html=1;strokeColor=none;fillColor=none;align=center;verticalAlign=middle;whiteSpace=wrap;rounded=0;fontSize=13;" vertex="1" parent="1">
                    <mxGeometry x="618.5" y="310.5" width="60" height="30" as="geometry"/>
                </mxCell>
                <mxCell id="256" value="SELECT" style="text;html=1;strokeColor=none;fillColor=none;align=center;verticalAlign=middle;whiteSpace=wrap;rounded=0;fontSize=13;" vertex="1" parent="1">
                    <mxGeometry x="456" y="310" width="60" height="30" as="geometry"/>
                </mxCell>
                <mxCell id="257" value="SELECT" style="text;html=1;strokeColor=none;fillColor=none;align=center;verticalAlign=middle;whiteSpace=wrap;rounded=0;fontSize=13;" vertex="1" parent="1">
                    <mxGeometry x="298.5" y="310" width="60" height="30" as="geometry"/>
                </mxCell>
                <mxCell id="259" value="" style="group" vertex="1" connectable="0" parent="1">
                    <mxGeometry x="71" y="481" width="680" height="40" as="geometry"/>
                </mxCell>
                <mxCell id="260" value="" style="whiteSpace=wrap;html=1;aspect=fixed;" vertex="1" parent="259">
                    <mxGeometry x="10" width="40" height="40" as="geometry"/>
                </mxCell>
                <mxCell id="261" value="Image" style="text;html=1;strokeColor=none;fillColor=none;align=center;verticalAlign=middle;whiteSpace=wrap;rounded=0;" vertex="1" parent="259">
                    <mxGeometry y="6" width="60" height="30" as="geometry"/>
                </mxCell>
                <mxCell id="262" value="Item Name" style="text;html=1;strokeColor=none;fillColor=none;align=center;verticalAlign=middle;whiteSpace=wrap;rounded=0;" vertex="1" parent="259">
                    <mxGeometry x="50" width="100" height="20" as="geometry"/>
                </mxCell>
                <mxCell id="263" value="Item description" style="text;html=1;strokeColor=none;fillColor=none;align=left;verticalAlign=middle;whiteSpace=wrap;rounded=0;" vertex="1" parent="259">
                    <mxGeometry x="70" y="20" width="350" height="20" as="geometry"/>
                </mxCell>
                <mxCell id="264" value="Start Bid&lt;br&gt;$X.xx" style="text;html=1;strokeColor=none;fillColor=none;align=center;verticalAlign=middle;whiteSpace=wrap;rounded=0;" vertex="1" parent="259">
                    <mxGeometry x="384" y="6" width="60" height="30" as="geometry"/>
                </mxCell>
                <mxCell id="265" value="# bids" style="text;html=1;strokeColor=none;fillColor=none;align=center;verticalAlign=middle;whiteSpace=wrap;rounded=0;" vertex="1" parent="259">
                    <mxGeometry x="453" y="10" width="60" height="30" as="geometry"/>
                </mxCell>
                <mxCell id="266" value="Link to product" style="text;html=1;strokeColor=none;fillColor=none;align=center;verticalAlign=middle;whiteSpace=wrap;rounded=0;" vertex="1" parent="259">
                    <mxGeometry x="247" y="9" width="90" height="30" as="geometry"/>
                </mxCell>
                <mxCell id="267" value="High Bid&lt;br&gt;&lt;br&gt;Bidder Name" style="text;html=1;strokeColor=none;fillColor=none;align=center;verticalAlign=middle;whiteSpace=wrap;rounded=0;fontSize=10;" vertex="1" parent="259">
                    <mxGeometry x="512" y="9" width="80" height="30" as="geometry"/>
                </mxCell>
                <mxCell id="268" value="EDIT" style="rounded=1;whiteSpace=wrap;html=1;fontSize=10;" vertex="1" parent="259">
                    <mxGeometry x="610" y="9" width="70" height="24" as="geometry"/>
                </mxCell>
                <mxCell id="269" value="" style="group" vertex="1" connectable="0" parent="1">
                    <mxGeometry x="71" y="411" width="680" height="40" as="geometry"/>
                </mxCell>
                <mxCell id="270" value="" style="whiteSpace=wrap;html=1;aspect=fixed;" vertex="1" parent="269">
                    <mxGeometry x="10" width="40" height="40" as="geometry"/>
                </mxCell>
                <mxCell id="271" value="Image" style="text;html=1;strokeColor=none;fillColor=none;align=center;verticalAlign=middle;whiteSpace=wrap;rounded=0;" vertex="1" parent="269">
                    <mxGeometry y="6" width="60" height="30" as="geometry"/>
                </mxCell>
                <mxCell id="272" value="Item Name" style="text;html=1;strokeColor=none;fillColor=none;align=center;verticalAlign=middle;whiteSpace=wrap;rounded=0;" vertex="1" parent="269">
                    <mxGeometry x="50" width="100" height="20" as="geometry"/>
                </mxCell>
                <mxCell id="273" value="Item description" style="text;html=1;strokeColor=none;fillColor=none;align=left;verticalAlign=middle;whiteSpace=wrap;rounded=0;" vertex="1" parent="269">
                    <mxGeometry x="70" y="20" width="350" height="20" as="geometry"/>
                </mxCell>
                <mxCell id="274" value="Start Bid&lt;br&gt;$X.xx" style="text;html=1;strokeColor=none;fillColor=none;align=center;verticalAlign=middle;whiteSpace=wrap;rounded=0;" vertex="1" parent="269">
                    <mxGeometry x="384" y="6" width="60" height="30" as="geometry"/>
                </mxCell>
                <mxCell id="275" value="# bids" style="text;html=1;strokeColor=none;fillColor=none;align=center;verticalAlign=middle;whiteSpace=wrap;rounded=0;" vertex="1" parent="269">
                    <mxGeometry x="453" y="10" width="60" height="30" as="geometry"/>
                </mxCell>
                <mxCell id="276" value="Link to product" style="text;html=1;strokeColor=none;fillColor=none;align=center;verticalAlign=middle;whiteSpace=wrap;rounded=0;" vertex="1" parent="269">
                    <mxGeometry x="247" y="9" width="90" height="30" as="geometry"/>
                </mxCell>
                <mxCell id="277" value="High Bid&lt;br&gt;&lt;br&gt;Bidder Name" style="text;html=1;strokeColor=none;fillColor=none;align=center;verticalAlign=middle;whiteSpace=wrap;rounded=0;fontSize=10;" vertex="1" parent="269">
                    <mxGeometry x="512" y="9" width="80" height="30" as="geometry"/>
                </mxCell>
                <mxCell id="278" value="EDIT" style="rounded=1;whiteSpace=wrap;html=1;fontSize=10;" vertex="1" parent="269">
                    <mxGeometry x="610" y="9" width="70" height="24" as="geometry"/>
                </mxCell>
            </root>
        </mxGraphModel>
    </diagram>
</mxfile>